<svg width="2854" height="1756" xmlns="http://www.w3.org/2000/svg" xmlns:xlink="http://www.w3.org/1999/xlink" overflow="hidden"><defs><clipPath id="clip0"><rect x="718" y="414" width="2854" height="1756"/></clipPath></defs><g clip-path="url(#clip0)" transform="translate(-718 -414)"><path d="M1345 1158 1619 637 1893 1158Z" fill="#C1444A" fill-rule="evenodd"/><text fill="#FFFFFF" font-family="Malgun Gothic,Malgun Gothic_MSFontService,sans-serif" font-weight="700" font-size="83" transform="matrix(1 0 0 1 1536.11 1009)">위험</text><path d="M1880.5 892.771 2705.8 892.771 2705.8 904.23 1880.5 904.229ZM1880.5 915.688C1871.01 915.688 1863.31 907.992 1863.31 898.5 1863.31 889.008 1871.01 881.313 1880.5 881.313 1889.99 881.313 1897.69 889.008 1897.69 898.5 1897.69 907.992 1889.99 915.688 1880.5 915.688ZM2700.07 869.855 2734.45 898.5 2700.07 927.146Z" fill="#C1444A"/><path d="M2155.5 1373.77 2706.57 1373.77 2706.57 1385.23 2155.5 1385.23ZM2155.5 1396.69C2146.01 1396.69 2138.31 1388.99 2138.31 1379.5 2138.31 1370.01 2146.01 1362.31 2155.5 1362.31 2164.99 1362.31 2172.69 1370.01 2172.69 1379.5 2172.69 1388.99 2164.99 1396.69 2155.5 1396.69ZM2700.84 1350.85 2735.22 1379.5 2700.84 1408.15Z" fill="#EEC346"/><path d="M2393.5 1855.77 2705.72 1855.77 2705.72 1867.23 2393.5 1867.23ZM2393.5 1878.69C2384.01 1878.69 2376.31 1870.99 2376.31 1861.5 2376.31 1852.01 2384.01 1844.31 2393.5 1844.31 2402.99 1844.31 2410.69 1852.01 2410.69 1861.5 2410.69 1870.99 2402.99 1878.69 2393.5 1878.69ZM2699.99 1832.85 2734.37 1861.5 2699.99 1890.15Z" fill="#5D835D"/><text fill="#404040" font-family="Malgun Gothic,Malgun Gothic_MSFontService,sans-serif" font-weight="700" font-size="92" transform="translate(2798.78 1419)">위험도</text><text fill="#404040" font-family="Arial,Arial_MSFontService,sans-serif" font-weight="700" font-size="92" transform="matrix(1 0 0 1 3098.99 1419)">5</text><text fill="#404040" font-family="Malgun Gothic,Malgun Gothic_MSFontService,sans-serif" font-weight="700" font-size="92" transform="translate(3149.98 1419)">점<tspan font-size="92" x="116.875" y="0">이상</tspan><tspan font-size="92" x="-351.198" y="481">위험도</tspan></text><text fill="#404040" font-family="Arial,Arial_MSFontService,sans-serif" font-weight="700" font-size="92" transform="matrix(1 0 0 1 3098.99 1900)">5</text><text fill="#404040" font-family="Malgun Gothic,Malgun Gothic_MSFontService,sans-serif" font-weight="700" font-size="92" transform="translate(3149.98 1900)">점<tspan font-size="92" x="116.875" y="0">미만</tspan><tspan font-size="92" x="-351.198" y="-963">위험도</tspan></text><text fill="#404040" font-family="Arial,Arial_MSFontService,sans-serif" font-weight="700" font-size="92" transform="matrix(1 0 0 1 3098.99 937)">10</text><text fill="#404040" font-family="Malgun Gothic,Malgun Gothic_MSFontService,sans-serif" font-weight="700" font-size="92" transform="translate(3200.97 937)">점<tspan font-size="92" x="116.875" y="0">이상</tspan></text><path d="M1560.71 1470.48 1562.99 1478.96C1563.91 1482.39 1563.07 1485.87 1560.88 1488.3L1580.53 1561.66C1582.07 1567.38 1578.74 1573.25 1573.1 1574.76L1563.49 1577.33C1557.86 1578.84 1552.05 1575.43 1550.51 1569.71L1531.15 1497.44C1527.23 1496.8 1523.86 1493.88 1522.76 1489.74L1517.55 1470.32ZM1700.34 1405.59C1714.03 1405.57 1725.25 1416.76 1725.44 1430.62 1725.62 1444.49 1714.71 1455.82 1701.02 1455.98 1700.8 1439.18 1700.57 1422.38 1700.34 1405.59ZM1511.28 1392.47 1560.66 1392.65 1560.93 1463.75 1511.54 1463.56C1506.09 1463.54 1501.65 1459.05 1501.63 1453.52L1501.44 1402.43C1501.42 1396.91 1505.83 1392.45 1511.28 1392.47ZM1660.75 1366.98 1661.21 1490.16 1567.75 1463.49 1567.49 1392.96ZM1673.14 1358.63 1687.61 1358.69C1690.7 1358.7 1693.21 1361.24 1693.22 1364.37L1693.69 1493.01C1693.71 1496.14 1691.21 1498.67 1688.12 1498.66L1673.66 1498.6C1670.57 1498.59 1668.05 1496.05 1668.04 1492.92L1667.57 1364.28C1667.56 1361.15 1670.05 1358.62 1673.14 1358.63Z" fill="#FFFFFF" fill-rule="evenodd"/><path d="M1628.95 1874.7C1608.03 1868.98 1586.53 1881.64 1580.93 1902.96 1575.32 1924.28 1587.74 1946.2 1608.65 1951.92 1629.57 1957.63 1651.07 1944.98 1656.68 1923.65 1662.28 1902.33 1649.87 1880.41 1628.95 1874.7ZM1635.93 1848.15C1671.23 1857.8 1692.17 1894.78 1682.71 1930.76 1673.26 1966.75 1636.97 1988.1 1601.68 1978.46 1566.38 1968.82 1545.43 1931.83 1554.89 1895.85 1564.35 1859.87 1600.63 1838.51 1635.93 1848.15ZM1638.46 1838.5C1597.94 1827.43 1556.28 1851.95 1545.42 1893.26 1534.56 1934.58 1558.61 1977.04 1599.14 1988.11 1639.67 1999.18 1681.32 1974.66 1692.18 1933.35 1703.04 1892.04 1678.99 1849.57 1638.46 1838.5ZM1727 1854.34 1726.68 1855.56 1726.35 1855.05ZM1662.72 1810.63 1662.26 1838.05 1661.44 1837.82C1668.17 1841.68 1674.25 1846.42 1679.4 1852.03L1703.34 1845.96 1718.69 1875.39 1701.63 1891.07C1703.77 1899.01 1704.78 1907.33 1704.42 1915.78L1725.73 1927.84 1717.27 1960.03 1691.4 1959.59C1688.14 1965.16 1684.17 1970.18 1679.73 1974.67L1688.23 1997.26 1661.45 2016.38 1641.13 1998.4 1643.6 1996.64C1635.82 1999.2 1627.59 2000.44 1619.21 2000.39L1606.89 2023 1575.31 2014.37 1575.74 1988.52C1569.05 1984.63 1563 1979.88 1557.89 1974.25L1558.3 1975.14 1531.89 1980.36 1518.07 1950.15 1535.94 1935.39C1534.03 1928.27 1533.03 1920.84 1533.03 1913.29L1512 1901.39 1520.46 1869.19 1544.56 1869.61C1547.83 1863.72 1551.78 1858.36 1556.25 1853.56L1548.18 1828.18 1575.9 1810.52 1595.27 1829.56 1595.07 1829.68C1602.68 1827.24 1610.72 1826.11 1618.9 1826.2L1618.08 1825.98 1631.13 1802Z" fill="#FFFFFF" fill-rule="evenodd"/><path d="M1016.5 1672.5 1272.26 1202.5 1965.74 1202.5 2221.5 1672.5Z" stroke="#FFFFFF" stroke-width="55" stroke-miterlimit="8" fill="#EEC346" fill-rule="evenodd"/><path d="M764.5 2142.5 1020.26 1672.5 2217.74 1672.5 2473.5 2142.5Z" stroke="#FFFFFF" stroke-width="55" stroke-miterlimit="8" fill="#5D835D" fill-rule="evenodd"/><text fill="#FFFFFF" font-family="Malgun Gothic,Malgun Gothic_MSFontService,sans-serif" font-weight="700" font-size="83" transform="matrix(1 0 0 1 1536.11 1486)">관심<tspan font-size="83" x="0" y="471">일반</tspan></text><rect x="1142.5" y="416.5" width="2427" height="137" stroke="#FFFFFF" stroke-width="4.58333" stroke-miterlimit="8" fill="#FFFFFF"/></g></svg>